<svg class="icon" viewBox="0 0 1024 1024" xmlns="http://www.w3.org/2000/svg" width="200" height="200"><path d="M76.8 115.2h870.4q76.8 0 76.8 76.8v640q0 76.8-76.8 76.8H76.8Q0 908.8 0 832V192q0-76.8 76.8-76.8z" fill="#1989FA" opacity=".3"/><path d="M588.8000000000001 396.8h281.6q25.6 0 25.6 25.6T870.4 448H588.8q-25.6 0-25.6-25.6t25.6-25.6zM588.8000000000001 512h281.6q25.6 0 25.6 25.6t-25.6 25.6H588.8q-25.6 0-25.6-25.6t25.6-25.6zM588.8000000000001 640h140.8q25.6 0 25.6 25.6t-25.6 25.6H588.8q-25.6 0-25.6-25.6t25.6-25.6zM153.59999999999997 422.4a140.8 140.8 0 1 0 281.6 0 140.8 140.8 0 1 0-281.6 0zM261.158 611.533l-73.062 126.553-88.691-51.2 69.043-119.577a191.309 191.309 0 0 0 92.71 44.224zm162.816-47.45l66.97 116.007-88.678 51.2-69.684-120.692a191.45 191.45 0 0 0 91.392-46.515z" fill="#1989FA"/></svg>